<svg width="114" height="18" viewBox="0 0 114 18" fill="none" xmlns="http://www.w3.org/2000/svg">
<path d="M15.9628 6.20694L11.4997 5.55831L9.5046 1.51358C9.45011 1.40284 9.36046 1.31319 9.24972 1.2587C8.97198 1.12159 8.63448 1.23585 8.49562 1.51358L6.5005 5.55831L2.03741 6.20694C1.91437 6.22452 1.80187 6.28253 1.71573 6.37042C1.6116 6.47744 1.55422 6.62143 1.5562 6.77074C1.55818 6.92006 1.61935 7.06247 1.72628 7.16671L4.95538 10.3149L4.19249 14.7605C4.1746 14.8639 4.18605 14.9702 4.22553 15.0675C4.265 15.1647 4.33094 15.2489 4.41585 15.3106C4.50077 15.3723 4.60127 15.4089 4.70595 15.4164C4.81063 15.4239 4.91531 15.4018 5.00812 15.3528L9.00011 13.254L12.9921 15.3528C13.1011 15.4108 13.2277 15.4302 13.3489 15.4091C13.6548 15.3564 13.8605 15.0663 13.8077 14.7605L13.0448 10.3149L16.2739 7.16671C16.3618 7.08057 16.4198 6.96807 16.4374 6.84503C16.4849 6.53741 16.2704 6.25264 15.9628 6.20694Z" fill="#6CB981"/>
<path d="M39.9628 6.20694L35.4997 5.55831L33.5046 1.51358C33.4501 1.40284 33.3605 1.31319 33.2497 1.2587C32.972 1.12159 32.6345 1.23585 32.4956 1.51358L30.5005 5.55831L26.0374 6.20694C25.9144 6.22452 25.8019 6.28253 25.7157 6.37042C25.6116 6.47744 25.5542 6.62143 25.5562 6.77074C25.5582 6.92006 25.6194 7.06247 25.7263 7.16671L28.9554 10.3149L28.1925 14.7605C28.1746 14.8639 28.186 14.9702 28.2255 15.0675C28.265 15.1647 28.3309 15.2489 28.4159 15.3106C28.5008 15.3723 28.6013 15.4089 28.7059 15.4164C28.8106 15.4239 28.9153 15.4018 29.0081 15.3528L33.0001 13.254L36.9921 15.3528C37.1011 15.4108 37.2277 15.4302 37.3489 15.4091C37.6548 15.3564 37.8605 15.0663 37.8077 14.7605L37.0448 10.3149L40.2739 7.16671C40.3618 7.08057 40.4198 6.96807 40.4374 6.84503C40.4849 6.53741 40.2704 6.25264 39.9628 6.20694Z" fill="#6CB981"/>
<path d="M63.9628 6.20694L59.4997 5.55831L57.5046 1.51358C57.4501 1.40284 57.3605 1.31319 57.2497 1.2587C56.972 1.12159 56.6345 1.23585 56.4956 1.51358L54.5005 5.55831L50.0374 6.20694C49.9144 6.22452 49.8019 6.28253 49.7157 6.37042C49.6116 6.47744 49.5542 6.62143 49.5562 6.77074C49.5582 6.92006 49.6194 7.06247 49.7263 7.16671L52.9554 10.3149L52.1925 14.7605C52.1746 14.8639 52.186 14.9702 52.2255 15.0675C52.265 15.1647 52.3309 15.2489 52.4159 15.3106C52.5008 15.3723 52.6013 15.4089 52.7059 15.4164C52.8106 15.4239 52.9153 15.4018 53.0081 15.3528L57.0001 13.254L60.9921 15.3528C61.1011 15.4108 61.2277 15.4302 61.3489 15.4091C61.6548 15.3564 61.8605 15.0663 61.8077 14.7605L61.0448 10.3149L64.2739 7.16671C64.3618 7.08057 64.4198 6.96807 64.4374 6.84503C64.4849 6.53741 64.2704 6.25264 63.9628 6.20694Z" fill="#6CB981"/>
<path d="M87.9628 6.20694L83.4997 5.55831L81.5046 1.51358C81.4501 1.40284 81.3605 1.31319 81.2497 1.2587C80.972 1.12159 80.6345 1.23585 80.4956 1.51358L78.5005 5.55831L74.0374 6.20694C73.9144 6.22452 73.8019 6.28253 73.7157 6.37042C73.6116 6.47744 73.5542 6.62143 73.5562 6.77074C73.5582 6.92006 73.6194 7.06247 73.7263 7.16671L76.9554 10.3149L76.1925 14.7605C76.1746 14.8639 76.186 14.9702 76.2255 15.0675C76.265 15.1647 76.3309 15.2489 76.4159 15.3106C76.5008 15.3723 76.6013 15.4089 76.7059 15.4164C76.8106 15.4239 76.9153 15.4018 77.0081 15.3528L81.0001 13.254L84.9921 15.3528C85.1011 15.4108 85.2277 15.4302 85.3489 15.4091C85.6548 15.3564 85.8605 15.0663 85.8077 14.7605L85.0448 10.3149L88.2739 7.16671C88.3618 7.08057 88.4198 6.96807 88.4374 6.84503C88.4849 6.53741 88.2704 6.25264 87.9628 6.20694Z" fill="#6CB981"/>
<path d="M111.963 6.20694L107.5 5.55831L105.505 1.51358C105.45 1.40284 105.36 1.31319 105.25 1.2587C104.972 1.12159 104.634 1.23585 104.496 1.51358L102.5 5.55831L98.0374 6.20694C97.9144 6.22452 97.8019 6.28253 97.7157 6.37042C97.6116 6.47744 97.5542 6.62143 97.5562 6.77074C97.5582 6.92006 97.6194 7.06247 97.7263 7.16671L100.955 10.3149L100.192 14.7605C100.175 14.8639 100.186 14.9702 100.226 15.0675C100.265 15.1647 100.331 15.2489 100.416 15.3106C100.501 15.3723 100.601 15.4089 100.706 15.4164C100.811 15.4239 100.915 15.4018 101.008 15.3528L105 13.254L108.992 15.3528C109.101 15.4108 109.228 15.4302 109.349 15.4091C109.655 15.3564 109.86 15.0663 109.808 14.7605L109.045 10.3149L112.274 7.16671C112.362 7.08057 112.42 6.96807 112.437 6.84503C112.485 6.53741 112.27 6.25264 111.963 6.20694Z" fill="#6CB981"/>
</svg>
