<svg width="78" height="84" viewBox="0 0 78 84" fill="none" xmlns="http://www.w3.org/2000/svg">
<path d="M14.0236 41.88C13.8871 42.115 13.8369 42.3912 13.8817 42.66C13.9265 42.9288 14.0634 43.1729 14.2685 43.3494C21.9223 49.9177 23.7508 60.3685 24.0392 62.3963C24.0783 62.6714 24.2137 62.9231 24.4207 63.1054C24.6278 63.2876 24.8926 63.3883 25.1669 63.389C25.2208 63.3884 25.2747 63.3841 25.328 63.376C25.6269 63.3323 25.8965 63.1703 26.0777 62.9254C26.2589 62.6805 26.3369 62.3729 26.2946 62.0698C25.9402 59.5783 24.5128 52.1284 19.6122 45.707C22.6151 47.1977 25.6019 49.1651 28.3615 52.2068C31.3129 55.6648 33.1092 60.811 33.1269 60.86C33.1747 61.0051 33.2506 61.1392 33.35 61.2544C33.4494 61.3697 33.5704 61.4637 33.7059 61.5312C33.8415 61.5986 33.9889 61.6382 34.1396 61.6474C34.2904 61.6567 34.4414 61.6355 34.584 61.5851C34.7266 61.5348 34.858 61.4562 34.9704 61.354C35.0828 61.2518 35.174 61.128 35.2388 60.9897C35.3037 60.8515 35.3407 60.7016 35.3479 60.5487C35.3551 60.3958 35.3323 60.243 35.2808 60.0992C35.2051 59.8771 33.4201 54.7554 30.3253 50.979C30.0901 47.6271 29.2637 40.9331 26.3816 34.7387C29.0217 37.2153 31.3189 40.0426 33.2106 43.1437L33.2316 43.1813C35.1312 46.3122 36.6501 49.6645 37.7553 53.1651V53.1766V53.1929C38.2386 54.7162 38.8218 57.2158 39.2052 59.0477C39.2598 59.3068 39.4004 59.5391 39.6036 59.7058C39.8067 59.8725 40.0602 59.9635 40.3216 59.9636C40.4017 59.9635 40.4816 59.9553 40.56 59.9391C40.8561 59.8749 41.115 59.6943 41.2799 59.4369C41.4448 59.1795 41.5022 58.8663 41.4397 58.5661C41.0723 56.8224 40.5294 54.4843 40.0461 52.8647C41.2641 49.4132 42.8902 46.1238 44.8888 43.0686L44.9774 42.9364C46.8955 40.0178 49.1882 37.3708 51.7952 35.0652C48.6215 41.4327 47.6597 48.3944 47.3762 51.5945V51.6108C47.3762 51.619 47.3762 51.6288 47.3762 51.6369C47.1007 56.9497 48.1656 60.6526 48.2107 60.8077C48.3061 61.0899 48.5052 61.3239 48.7666 61.4609C49.028 61.5979 49.3315 61.6273 49.6138 61.5431C49.8961 61.4589 50.1355 61.2675 50.2819 61.0088C50.4284 60.7502 50.4707 60.4442 50.4001 60.1547C50.3904 60.122 49.4625 56.8566 49.6364 52.1986C52.075 49.685 54.8823 47.5686 57.9589 45.9242C56.1417 48.4108 54.7739 51.3692 53.9217 54.695C52.8536 58.8763 52.9793 62.1465 52.9857 62.2837C52.9986 62.5811 53.1242 62.8621 53.3364 63.068C53.5485 63.2739 53.8309 63.3889 54.1247 63.389H54.1763C54.4787 63.3754 54.7635 63.2407 54.968 63.0145C55.1725 62.7883 55.28 62.489 55.2669 62.1825C55.2669 62.0616 54.8464 49.9814 63.6538 43.4066C63.8741 43.2422 64.0289 43.0031 64.09 42.7328C64.1511 42.4625 64.1144 42.1789 63.9866 41.9337C63.8588 41.6885 63.6484 41.498 63.3936 41.3967C63.1389 41.2955 62.8568 41.2903 62.5986 41.3821C57.7076 43.1209 53.6527 45.4638 50.0537 48.6442C50.7835 43.9095 52.5685 36.6554 56.9053 31.3019C57.0765 31.092 57.1691 30.8277 57.1668 30.5555C57.1646 30.2833 57.0676 30.0206 56.8929 29.8137C56.7183 29.6069 56.4772 29.4691 56.2121 29.4248C55.9471 29.3804 55.6751 29.4323 55.4441 29.5712C52.5185 31.3051 48.3815 34.4317 44.4635 39.6971C42.5835 33.0701 42.3483 29.1418 44.0849 22.1768C44.146 21.9302 44.1254 21.67 44.026 21.4365C43.9267 21.203 43.7543 21.0092 43.5355 20.8849C43.3166 20.7606 43.0634 20.7128 42.8151 20.7489C42.5667 20.785 42.337 20.9029 42.1614 21.0845C36.1701 27.2887 33.9614 33.8929 33.3009 39.1355C29.6245 34.0235 25.7066 30.9035 22.8873 29.1206C22.6599 28.9774 22.3899 28.9197 22.1248 28.9576C21.8596 28.9956 21.616 29.1268 21.4366 29.3283C21.2572 29.5297 21.1533 29.7887 21.1431 30.0599C21.133 30.3312 21.2172 30.5974 21.381 30.8121C25.5922 36.3044 27.1807 43.6384 27.7783 48.3928C23.7653 44.8107 19.4897 42.9641 15.4074 41.387C15.1564 41.2907 14.8799 41.2874 14.6268 41.3777C14.3736 41.4679 14.16 41.6458 14.0236 41.88V41.88ZM42.7961 42.1119C41.2822 44.4609 39.9791 46.9427 38.9023 49.5275C37.9287 47.0061 36.7429 44.5743 35.3581 42.2588C35.466 37.9355 36.6131 31.9729 40.9692 26.0479C40.146 31.5468 40.8468 35.666 42.7961 42.1119Z" fill="white"/>
<path d="M74.4474 59.3122C72.8847 58.1122 70.08 59.3579 66.5535 62.8208C66.5255 62.8475 66.4992 62.8759 66.4745 62.9057C63.8422 66.0715 54.1874 72.3557 47.7112 73.83L47.6741 73.8382C44.1895 74.7541 42.8556 74.6806 42.4045 74.5859C42.5656 74.2121 43.057 73.5231 43.8867 72.7524C45.9697 70.8161 48.2219 68.354 47.1312 66.4846C46.2113 64.9107 43.5032 64.0911 30.0368 68.7197C23.7233 70.8896 17.1359 69.3483 10.4583 64.1368C7.2826 61.6239 4.46747 58.6753 2.09398 55.3758C1.95831 55.1683 1.76026 55.0107 1.52922 54.9263C1.29817 54.8419 1.04644 54.8352 0.811348 54.9072C0.576258 54.9792 0.370337 55.1261 0.224127 55.3261C0.0779175 55.5261 -0.000792803 55.7685 -0.000329048 56.0174C-0.00815119 56.1808 0.0245258 56.3436 0.0947202 56.4909C2.77774 63.8917 7.46199 70.3777 13.6117 75.207C19.7613 80.0363 27.1281 83.0139 34.8692 83.7992C42.6103 84.5844 50.4132 83.1456 57.3853 79.6474C64.3575 76.1491 70.2172 70.7326 74.2944 64.0176C74.2964 64.0124 74.2991 64.0074 74.3024 64.0029L74.5892 63.5131L74.6133 63.4706C75.5687 61.6812 75.5058 60.1253 74.4474 59.3122ZM72.6157 62.3522L72.345 62.8094C65.1519 74.63 52.6908 81.6849 38.9973 81.6849C25.4648 81.6849 13.0263 74.5402 5.93944 63.2715C7.24581 64.5202 8.63156 65.6808 10.0878 66.7458C13.1632 68.9793 16.295 70.5189 19.3994 71.3173C23.1464 72.3191 27.1018 72.1777 30.7699 70.9108C42.0114 67.0479 44.5907 67.4593 45.1078 67.6699C45.0272 67.9785 44.5987 68.9499 42.3417 71.0479C40.9498 72.3394 39.4644 74.2023 40.2877 75.7386C41.1109 77.275 43.3985 77.3501 48.2283 76.0831C55.2023 74.4896 65.2405 67.9295 68.179 64.4437C70.929 61.7563 72.4981 61.1783 73.0023 61.1783C72.9991 61.3661 72.9266 61.7629 72.6157 62.3522Z" fill="white"/>
<path d="M77.9043 27.514C75.2228 20.112 70.5394 13.6245 64.3899 8.79384C58.2405 3.9632 50.8735 0.984557 43.1318 0.198743C35.3901 -0.587071 27.5865 0.851685 20.6139 4.35038C13.6413 7.84908 7.78137 13.2664 3.70464 19.9824L3.69659 19.9955L3.40983 20.4853L3.38566 20.5294C2.43034 22.3253 2.49156 23.8764 3.54677 24.6895C5.10944 25.8895 7.9142 24.6454 11.4407 21.1825C11.4691 21.1556 11.4955 21.1267 11.5196 21.0959C14.1601 17.9269 23.8148 11.6427 30.2862 10.17L30.3233 10.1602C33.8079 9.2459 35.1418 9.31937 35.5929 9.41406C35.4318 9.78795 34.9404 10.4769 34.1124 11.2459C32.0277 13.1823 29.7755 15.6444 30.8678 17.5154C31.7877 19.0894 34.4942 19.909 47.9605 15.2803C54.2741 13.1105 60.8615 14.6517 67.5407 19.8616C70.7166 22.3743 73.5313 25.3236 75.9034 28.6242C76.008 28.7821 76.1492 28.9115 76.3147 29.0011C76.4801 29.0908 76.6647 29.138 76.8523 29.1385C76.9193 29.1382 76.9861 29.1322 77.0521 29.1206C77.3169 29.0732 77.5567 28.9326 77.7291 28.7235C77.9016 28.5143 77.9956 28.2502 77.9945 27.9777C78.0026 27.818 77.9716 27.6587 77.9043 27.514ZM67.908 17.2526C64.8342 15.0207 61.7008 13.4811 58.598 12.6794C54.8523 11.6792 50.8985 11.8217 47.2324 13.0892C35.9908 16.9522 33.4132 16.5407 32.8944 16.3301C32.975 16.0215 33.4035 15.0501 35.6605 12.9521C37.0524 11.659 38.5362 9.79611 37.7129 8.26139C36.8897 6.72666 34.6021 6.6483 29.7723 7.91689C22.7999 9.51039 12.7601 16.0689 9.82646 19.5547C7.07648 22.2421 5.50736 22.82 5.00311 22.82C5.00311 22.6274 5.07722 22.2323 5.38975 21.6412L5.65879 21.1857C12.8535 9.36508 25.313 2.30862 39.0066 2.30862C52.539 2.30862 64.976 9.45325 72.0628 20.7237C70.7549 19.475 69.367 18.3155 67.908 17.2526V17.2526Z" fill="white"/>
</svg>
